<svg width="355" height="213" viewBox="0 0 355 213" fill="none" xmlns="http://www.w3.org/2000/svg">
<g clip-path="url(#clip0_23_0)">
<rect width="355" height="213" fill="#1E1F4B"/>
<path d="M110.886 3.17697C64.9945 -13.643 56.3655 -16.6022 0 -37.7136V228.331H355V42.0179C329.21 31.6275 311.548 41.4164 288.079 30.4374C259.624 17.126 238.701 20.8906 220.953 15.2699C172.857 0.0389633 148.606 17.0018 110.886 3.17697Z" fill="#2C2C60"/>
<path d="M111.399 11.0681C63.7263 0.283394 56.3655 -16.6022 0 -37.7136V228.331H355V77.6819C332.921 79.1989 314.398 68.9189 287.566 59.3375C259.552 51.015 232.138 55.9567 215.726 45.7073C181.364 24.2482 162.129 22.5446 111.399 11.0681Z" fill="#191B44"/>
<g filter="url(#filter0_bf_23_0)">
<circle cx="72" cy="-103" r="152" fill="#C4C4C4" fill-opacity="0.01"/>
</g>
<g filter="url(#filter1_bf_23_0)">
<circle cx="335.5" cy="88.5" r="62.5" fill="#C4C4C4" fill-opacity="0.01"/>
</g>
<path d="M100.945 46.6296C52.8972 37.6666 56.3655 21.1114 0 0V228.331H355V87.1103C315.582 89.8187 270.941 94.7804 221.055 71.8404C181.37 53.591 155.947 56.8898 100.945 46.6296Z" fill="#C92729"/>
<g filter="url(#filter2_f_23_0)">
<path d="M100.945 59.7474C52.8972 50.7844 56.3655 34.2292 0 13.1178V228.331H355V101.458C321.078 97.461 271.886 96.9341 215.214 89.16C171.939 83.2236 155.947 70.0076 100.945 59.7474Z" fill="#621313"/>
</g>
<path d="M113.448 54.0084C63.7442 31.0522 42.8377 38.5335 0.409912 49.7041V228.331H355V124.311C302.734 112.731 291.192 102.564 222.285 97.2561C151.777 91.8245 135.046 63.9834 113.448 54.0084Z" fill="#A460E9"/>
<g filter="url(#filter3_f_23_0)">
<path d="M113.448 54.0084C63.7442 31.0522 42.8377 38.5335 0.409912 49.7041V228.331H355V130.051C303.149 123.526 291.818 123.292 222.285 110.374C152.758 97.457 135.046 63.9834 113.448 54.0084Z" fill="#8642CB"/>
</g>
<g filter="url(#filter4_bf_23_0)">
<circle cx="140" cy="134" r="79" fill="#C4C4C4" fill-opacity="0.01"/>
</g>
<path d="M239.809 118.675C176.466 107.686 162.56 88.099 134.457 65.2815C111.153 46.3599 99.8945 26.4538 87.0078 16.3972C59.3785 -4.85594 20.3551 -2.34463 0.409912 -15.3724V228.331H355V147.165C325.311 151.682 308.903 137.233 289.616 128.513C270.491 121.224 250.837 120.588 239.809 118.675Z" fill="#369DC4"/>
<g filter="url(#filter5_f_23_0)">
<path d="M247.393 142.451C183.149 130.546 158.181 121.313 134.457 106.275C119.048 96.5063 108.498 73.9215 87.0078 57.3903C59.3785 36.1371 20.3551 38.6484 0.409912 25.6207V228.331H355V160.898C296.175 147.678 276.703 147.882 247.393 142.451Z" fill="#552691"/>
</g>
<path d="M73.685 122.774C38.147 100.956 35.459 72.8652 0 49.7041V228.331H355V197.689C305.334 182.074 255.901 188.254 187.953 158.438C141.5 138.054 119.585 150.954 73.685 122.774Z" fill="#CA2F30"/>
<g filter="url(#filter6_f_23_0)">
<path d="M54.7257 148.907C20.8904 124.532 35.459 134.867 0 111.706V246.368H355V209.167C305.312 188.075 228.766 203.043 155.466 189.9C101.909 180.298 90.9375 174.994 54.7257 148.907Z" fill="#621313"/>
</g>
<g filter="url(#filter7_bf_23_0)">
<circle cx="-55" cy="145" r="151" fill="#C4C4C4" fill-opacity="0.01"/>
</g>
<g filter="url(#filter8_bf_23_0)">
<circle cx="305" cy="275" r="123" fill="#C4C4C4" fill-opacity="0.01"/>
</g>
<g style="mix-blend-mode:overlay">
<path d="M52.0002 42.0009L40.0002 54.0009L28.0002 42.0009M52.0002 42.0009L40.0002 30.0009M52.0002 42.0009C55.3139 38.6872 55.3139 33.3146 52.0002 30.0009C48.6865 26.6872 43.3139 26.6872 40.0002 30.0009M52.0002 42.0009L40.0002 42.0009M28.0002 42.0009L40.0002 30.0009M28.0002 42.0009C24.6865 38.6872 24.6865 33.3146 28.0002 30.0009C31.3139 26.6872 36.6865 26.6872 40.0002 30.0009M28.0002 42.0009L40.0002 42.0009M40.0002 30.0009V42.0009" stroke="white" stroke-width="2"/>
</g>
</g>
<defs>
<filter id="filter0_bf_23_0" x="-120" y="-295" width="384" height="384" filterUnits="userSpaceOnUse" color-interpolation-filters="sRGB">
<feFlood flood-opacity="0" result="BackgroundImageFix"/>
<feGaussianBlur in="BackgroundImageFix" stdDeviation="16"/>
<feComposite in2="SourceAlpha" operator="in" result="effect1_backgroundBlur_23_0"/>
<feBlend mode="normal" in="SourceGraphic" in2="effect1_backgroundBlur_23_0" result="shape"/>
<feGaussianBlur stdDeviation="20" result="effect2_foregroundBlur_23_0"/>
</filter>
<filter id="filter1_bf_23_0" x="233" y="-14" width="205" height="205" filterUnits="userSpaceOnUse" color-interpolation-filters="sRGB">
<feFlood flood-opacity="0" result="BackgroundImageFix"/>
<feGaussianBlur in="BackgroundImageFix" stdDeviation="16"/>
<feComposite in2="SourceAlpha" operator="in" result="effect1_backgroundBlur_23_0"/>
<feBlend mode="normal" in="SourceGraphic" in2="effect1_backgroundBlur_23_0" result="shape"/>
<feGaussianBlur stdDeviation="20" result="effect2_foregroundBlur_23_0"/>
</filter>
<filter id="filter2_f_23_0" x="-31.9746" y="-18.8568" width="418.949" height="279.163" filterUnits="userSpaceOnUse" color-interpolation-filters="sRGB">
<feFlood flood-opacity="0" result="BackgroundImageFix"/>
<feBlend mode="normal" in="SourceGraphic" in2="BackgroundImageFix" result="shape"/>
<feGaussianBlur stdDeviation="15.9873" result="effect1_foregroundBlur_23_0"/>
</filter>
<filter id="filter3_f_23_0" x="-11.888" y="26.7334" width="379.186" height="213.896" filterUnits="userSpaceOnUse" color-interpolation-filters="sRGB">
<feFlood flood-opacity="0" result="BackgroundImageFix"/>
<feBlend mode="normal" in="SourceGraphic" in2="BackgroundImageFix" result="shape"/>
<feGaussianBlur stdDeviation="6.14896" result="effect1_foregroundBlur_23_0"/>
</filter>
<filter id="filter4_bf_23_0" x="37" y="31" width="206" height="206" filterUnits="userSpaceOnUse" color-interpolation-filters="sRGB">
<feFlood flood-opacity="0" result="BackgroundImageFix"/>
<feGaussianBlur in="BackgroundImageFix" stdDeviation="8"/>
<feComposite in2="SourceAlpha" operator="in" result="effect1_backgroundBlur_23_0"/>
<feBlend mode="normal" in="SourceGraphic" in2="effect1_backgroundBlur_23_0" result="shape"/>
<feGaussianBlur stdDeviation="12" result="effect2_foregroundBlur_23_0"/>
</filter>
<filter id="filter5_f_23_0" x="-36.4839" y="-11.2731" width="428.378" height="276.498" filterUnits="userSpaceOnUse" color-interpolation-filters="sRGB">
<feFlood flood-opacity="0" result="BackgroundImageFix"/>
<feBlend mode="normal" in="SourceGraphic" in2="BackgroundImageFix" result="shape"/>
<feGaussianBlur stdDeviation="18.4469" result="effect1_foregroundBlur_23_0"/>
</filter>
<filter id="filter6_f_23_0" x="-31.9746" y="79.7315" width="418.949" height="198.611" filterUnits="userSpaceOnUse" color-interpolation-filters="sRGB">
<feFlood flood-opacity="0" result="BackgroundImageFix"/>
<feBlend mode="normal" in="SourceGraphic" in2="BackgroundImageFix" result="shape"/>
<feGaussianBlur stdDeviation="15.9873" result="effect1_foregroundBlur_23_0"/>
</filter>
<filter id="filter7_bf_23_0" x="-246" y="-46" width="382" height="382" filterUnits="userSpaceOnUse" color-interpolation-filters="sRGB">
<feFlood flood-opacity="0" result="BackgroundImageFix"/>
<feGaussianBlur in="BackgroundImageFix" stdDeviation="16"/>
<feComposite in2="SourceAlpha" operator="in" result="effect1_backgroundBlur_23_0"/>
<feBlend mode="normal" in="SourceGraphic" in2="effect1_backgroundBlur_23_0" result="shape"/>
<feGaussianBlur stdDeviation="20" result="effect2_foregroundBlur_23_0"/>
</filter>
<filter id="filter8_bf_23_0" x="158" y="128" width="294" height="294" filterUnits="userSpaceOnUse" color-interpolation-filters="sRGB">
<feFlood flood-opacity="0" result="BackgroundImageFix"/>
<feGaussianBlur in="BackgroundImageFix" stdDeviation="8"/>
<feComposite in2="SourceAlpha" operator="in" result="effect1_backgroundBlur_23_0"/>
<feBlend mode="normal" in="SourceGraphic" in2="effect1_backgroundBlur_23_0" result="shape"/>
<feGaussianBlur stdDeviation="12" result="effect2_foregroundBlur_23_0"/>
</filter>
<clipPath id="clip0_23_0">
<rect width="355" height="213" fill="white"/>
</clipPath>
</defs>
</svg>
